PathFileType	4	(X/Y/Z)	/Users/mathieubourgeois/Desktop/Analyse/Traitement/Sujet_06/Transformed_Static_Sujet_06_Tpose.trc
DataRate	CameraRate	NumFrames	NumMarkers	Units	OrigDataRate	OrigDataStartFrame	OrigNumFrames
120.000000	120.000000	5	36	mm	120.000000	126	252
Frame#	Time	RFHD			RANE			STRN			LANI			LKNE			T10			RHUM			RWRB			C7			LFWT			LTOE			RTOE			LWRA			LBWT			RBWT			RFWT			LKNI			RKNI			RKNE			LANE			RANI			LHEE			RHEE			LHUM			LRAD			RRAD			RWRA			LWRB			LFHD			LBHD			RBHD			RSHO			LSHO			CLAV			LCAR			RCAR			
		X1	Y1	Z1	X2	Y2	Z2	X3	Y3	Z3	X4	Y4	Z4	X5	Y5	Z5	X6	Y6	Z6	X7	Y7	Z7	X8	Y8	Z8	X9	Y9	Z9	X10	Y10	Z10	X11	Y11	Z11	X12	Y12	Z12	X13	Y13	Z13	X14	Y14	Z14	X15	Y15	Z15	X16	Y16	Z16	X17	Y17	Z17	X18	Y18	Z18	X19	Y19	Z19	X20	Y20	Z20	X21	Y21	Z21	X22	Y22	Z22	X23	Y23	Z23	X24	Y24	Z24	X25	Y25	Z25	X26	Y26	Z26	X27	Y27	Z27	X28	Y28	Z28	X29	Y29	Z29	X30	Y30	Z30	X31	Y31	Z31	X32	Y32	Z32	X33	Y33	Z33	X34	Y34	Z34	X35	Y35	Z35	X36	Y36	Z36	

127	1.05	-883.3419189453125	1638.751586914062	319.2109680175779	-958.8314208984375	75.44397735595705	216.3298187255858	-812.1023559570312	1233.63134765625	356.5216979980467	-763.8923950195312	77.70643615722658	223.965591430664	-674.237548828125	481.834228515625	236.9300384521483	-817.7778930664062	1211.376098632812	155.0619201660154	-1261.484497070312	1408.920043945312	195.1783599853513	-1486.262084960938	1481.578735351562	204.8165435791013	-816.29150390625	1453.206420898438	199.3457641601561	-701.13232421875	984.8386840820312	329.464385986328	-697.4017333984375	37.52928161621096	392.4410400390624	-918.3726806640625	38.57902526855471	399.5982360839843	-119.9429473876953	1345.60498046875	124.2248077392577	-761.555908203125	1010.9716796875	174.8927154541014	-868.2161254882812	1012.097045898438	181.9101104736326	-915.2151489257812	988.1276245117188	338.5719299316405	-768.48486328125	435.8431091308594	231.8575897216796	-867.2003784179688	441.9093627929688	219.1180114746092	-962.0422973632812	492.3872375488281	230.5864410400389	-683.2847290039062	69.75303649902345	202.6146545410155	-877.9768676757812	83.60210418701173	226.8375701904296	-724.5574340820312	51.99607849121094	154.3917541503905	-923.0049438476562	53.9144515991211	162.3807373046874	-368.9955139160156	1360.957397460938	153.5719604492186	-361.9957580566406	1316.778076171875	199.2468872070311	-1260.313598632812	1370.652709960938	249.1732635498045	-1499.345703125	1426.030395507812	184.1118011474607	-124.445442199707	1406.100341796875	121.7874374389647	-737.5978393554688	1642.621826171875	317.9883117675779	-738.2254028320312	1578.973754882812	180.6587677001951	-866.8802490234375	1580.6416015625	165.236129760742	-954.660888671875	1448.138793945312	232.5316772460936	-665.3927612304688	1435.000122070312	220.7948760986326	-809.6514892578125	1386.129516601562	317.7635803222655	-37.27764129638673	1386.6201171875	102.9701232910155	-1593.273681640625	1466.380249023438	163.3620147705075	
128	1.058333333333333	-883.2971801757812	1638.7421875	319.3476562499998	-958.833740234375	75.44871520996095	216.3443603515624	-812.0664672851562	1233.6416015625	356.6038208007811	-763.8933715820312	77.69217681884767	223.956069946289	-674.2111206054688	481.8309631347656	236.9333953857421	-817.7263793945312	1211.382934570312	155.1354370117186	-1261.435546875	1408.912353515625	195.2707366943357	-1486.212036132812	1481.6025390625	204.8658599853513	-816.244873046875	1453.21435546875	199.4339294433592	-701.1060180664062	984.8245849609375	329.5310668945311	-697.4002685546875	37.53469848632815	392.4516601562499	-918.3706665039062	38.57409667968752	399.6026916503905	-119.9001770019531	1345.603881835938	124.3174057006835	-761.5031127929688	1010.980102539062	174.962677001953	-868.1751708984375	1012.116760253906	181.9612731933592	-915.190673828125	988.1156616210938	338.6200256347655	-768.463623046875	435.8443908691406	231.8598785400389	-867.1783447265625	441.9123229980469	219.1303253173827	-962.0210571289062	492.393798828125	230.6051330566405	-683.283447265625	69.75425720214845	202.5877990722655	-877.96923828125	83.60272216796876	226.8568572998046	-724.537841796875	51.99547195434571	154.3975982666015	-923.0036010742188	53.91416931152344	162.3918609619139	-368.9792785644531	1360.94580078125	153.6482696533202	-361.9707641601562	1316.76904296875	199.3336486816405	-1260.278930664062	1370.662109375	249.2521514892576	-1499.307006835938	1426.043579101562	184.1792449951169	-124.4076309204102	1406.099731445312	121.8815155029296	-737.5525512695312	1642.614379882812	318.1169433593748	-738.1728515625	1579.005126953125	180.7542419433592	-866.828125	1580.67626953125	165.3324737548826	-954.6204833984375	1448.143310546875	232.608932495117	-665.3644409179688	1434.998046875	220.8780364990233	-809.5978393554688	1386.1357421875	317.8558044433592	-37.24850082397462	1386.608032226562	103.074249267578	-1593.236083984375	1466.388916015625	163.4208679199216	
129	1.066666666666667	-883.2478637695312	1638.720581054688	319.4675598144529	-958.8309326171875	75.44205474853517	216.3503417968749	-812.0277709960938	1233.643798828125	356.691436767578	-763.8831176757812	77.7134246826172	223.9498748779296	-674.191162109375	481.8210144042969	236.9262695312499	-817.6763916015625	1211.375610351562	155.2106018066404	-1261.374389648438	1408.909545898438	195.3365631103513	-1486.162353515625	1481.617431640625	204.9351043701169	-816.1844482421875	1453.237548828125	199.5147399902342	-701.0892333984375	984.8483276367188	329.622589111328	-697.4010009765625	37.53706359863283	392.4458618164061	-918.3795166015625	38.58018493652346	399.6023559570311	-119.8553924560547	1345.616577148438	124.401512145996	-761.4511108398438	1010.983947753906	175.0313720703124	-868.1297607421875	1012.118225097656	182.0284576416014	-915.15625	988.1008911132812	338.6813964843748	-768.44287109375	435.8487243652344	231.8543243408202	-867.1685180664062	441.9010925292969	219.1596374511717	-961.9976196289062	492.397216796875	230.6323242187499	-683.287353515625	69.76168823242189	202.5742797851562	-877.9640502929688	83.59767913818361	226.8571014404296	-724.562255859375	52.00068283081055	154.3945312499999	-923.0048828125	53.91143417358399	162.3829345703124	-368.93505859375	1360.947875976562	153.7250061035155	-361.9435119628906	1316.764282226562	199.406036376953	-1260.24072265625	1370.670532226562	249.3071289062498	-1499.265014648438	1426.05810546875	184.2587585449216	-124.370979309082	1406.103271484375	121.9814453124999	-737.4921875	1642.591796875	318.2491149902341	-738.1248168945312	1579.03466796875	180.8709716796873	-866.7703247070312	1580.726440429688	165.4587402343748	-954.5715942382812	1448.1396484375	232.6625061035154	-665.331787109375	1435.00390625	220.9562683105467	-809.5626831054688	1386.143310546875	317.9352416992186	-37.18484497070314	1386.627075195312	103.183120727539	-1593.1787109375	1466.419311523438	163.4938659667966	
130	1.075	-883.1898193359375	1638.710327148438	319.6244201660154	-958.8384399414062	75.43882751464845	216.3507995605468	-811.9974365234375	1233.6376953125	356.7666931152342	-763.876708984375	77.69883728027345	223.9273681640624	-674.1596069335938	481.8194885253906	236.9239959716796	-817.6256103515625	1211.379638671875	155.2613525390623	-1261.32421875	1408.903076171875	195.3887939453123	-1486.113159179688	1481.637329101562	205.0074462890622	-816.1469116210938	1453.23291015625	199.5981292724607	-701.0520629882812	984.81640625	329.6917114257811	-697.4051513671875	37.53335952758791	392.4445190429686	-918.3746337890625	38.57917785644533	399.596466064453	-119.8097534179688	1345.626098632812	124.4659881591796	-761.4110717773438	1010.998168945312	175.098678588867	-868.0813598632812	1012.122680664062	182.0879974365233	-915.1198120117188	988.08984375	338.7440795898436	-768.4197387695312	435.85302734375	231.8379364013671	-867.1467895507812	441.8994445800781	219.1590423583983	-961.9837036132812	492.3933410644531	230.6427764892577	-683.280029296875	69.76073455810548	202.5650329589843	-877.9671630859375	83.6001434326172	226.8636779785155	-724.5413818359375	51.99978637695313	154.3882904052734	-922.99365234375	53.90416717529298	162.3852386474608	-368.9018859863281	1360.942749023438	153.7881469726561	-361.9210815429688	1316.738037109375	199.4699401855467	-1260.185913085938	1370.670654296875	249.3541717529295	-1499.218017578125	1426.07861328125	184.3191680908201	-124.3452224731445	1406.106079101562	122.0885620117187	-737.4448852539062	1642.574951171875	318.392883300781	-738.0774536132812	1579.06298828125	180.9877624511717	-866.7117309570312	1580.771240234375	165.5538482666014	-954.5267333984375	1448.129516601562	232.7226562499998	-665.2849731445312	1435.002563476562	221.0416564941405	-809.5256958007812	1386.150024414062	318.0051269531248	-37.13257598876955	1386.649536132812	103.3074188232421	-1593.13427734375	1466.4375	163.5921325683591	
131	1.083333333333333	-883.1461791992188	1638.6982421875	319.7345275878904	-958.813720703125	75.43798065185548	216.3410491943358	-811.9692993164062	1233.633544921875	356.8488159179686	-763.8712158203125	77.71492004394533	223.9069824218749	-674.1339111328125	481.8188171386719	236.9009246826171	-817.5964965820312	1211.377807617188	155.3437652587889	-1261.283569335938	1408.900146484375	195.4592132568357	-1486.05712890625	1481.663208007812	205.0855712890622	-816.1007080078125	1453.227905273438	199.6611938476561	-701.020263671875	984.7990112304688	329.7569274902342	-697.4051513671875	37.52877044677737	392.4405822753905	-918.3780517578125	38.57046508789065	399.5947875976561	-119.7784194946289	1345.642333984375	124.5683975219726	-761.37109375	1011.003845214844	175.1913757324217	-868.0247802734375	1012.147033691406	182.1460876464842	-915.09033203125	988.0755004882812	338.8049316406248	-768.3849487304688	435.8583679199219	231.8139343261718	-867.1368408203125	441.8895263671875	219.1966857910155	-961.9569091796875	492.38916015625	230.6631622314452	-683.2877197265625	69.74962615966798	202.5475311279296	-877.9661254882812	83.59332275390626	226.8562011718749	-724.5428466796875	51.99593734741212	154.3822326660155	-922.9912719726562	53.91909790039063	162.3886108398436	-368.8673706054688	1360.940185546875	153.8528747558592	-361.8912353515625	1316.728881835938	199.5196838378905	-1260.145263671875	1370.673950195312	249.401168823242	-1499.172973632812	1426.088623046875	184.3906402587888	-124.3094787597656	1406.118286132812	122.1723709106444	-737.3986206054688	1642.55859375	318.5290527343748	-738.0421752929688	1579.093017578125	181.1060180664061	-866.674560546875	1580.833984375	165.6678161621092	-954.4810791015625	1448.130737304688	232.7784118652342	-665.2412719726562	1434.992065429688	221.130661010742	-809.4824829101562	1386.145263671875	318.0927734374998	-37.08960342407228	1386.66455078125	103.4152908325194	-1593.097045898438	1466.476196289062	163.6746063232419	
